<svg width="44" height="45" viewBox="0 0 44 45" fill="none" xmlns="http://www.w3.org/2000/svg">
<path fill-rule="evenodd" clip-rule="evenodd" d="M35.3438 0H8.15625C3.6517 0 0 3.71466 0 8.29688V35.9531C0 40.5352 3.6517 44.25 8.15625 44.25H35.3438C39.8482 44.25 43.5 40.5352 43.5 35.9531V8.29688C43.5 3.71466 39.8482 0 35.3438 0ZM34.2391 23.8308H30.1694V39.1553H23.3699V23.8308H20.7311V18.6666H23.3699V15.3769C23.3699 11.0683 25.1326 8.50647 30.1238 8.50647H35.1835V13.6476H32.2415C30.2956 13.6476 30.1694 14.3871 30.1694 15.7612L30.1639 18.6607H34.7886L34.2333 23.8252L34.2391 23.8308Z" fill="white"/>
</svg>
