<svg width="46" height="45" viewBox="0 0 46 45" fill="none" xmlns="http://www.w3.org/2000/svg">
<rect width="46" height="45" rx="10" fill="white"/>
<path d="M32.5835 3.75H13.4168C8.1241 3.75 3.8335 7.94733 3.8335 13.125V31.875C3.8335 37.0527 8.1241 41.25 13.4168 41.25H32.5835C37.8762 41.25 42.1668 37.0527 42.1668 31.875V13.125C42.1668 7.94733 37.8762 3.75 32.5835 3.75Z" stroke="#DBD1C1" stroke-width="2" stroke-linecap="round" stroke-linejoin="round"/>
<path d="M30.6664 21.3188C30.903 22.8793 30.6305 24.473 29.8878 25.8732C29.1451 27.2735 27.97 28.409 26.5295 29.1182C25.0891 29.8275 23.4568 30.0743 21.8647 29.8237C20.2726 29.5731 18.8018 28.8377 17.6615 27.7223C16.5213 26.6068 15.7696 25.168 15.5134 23.6105C15.2572 22.053 15.5096 20.4561 16.2346 19.047C16.9596 17.6379 18.1203 16.4883 19.5517 15.7618C20.983 15.0352 22.6121 14.7687 24.2073 15.0001C25.8344 15.2361 27.3407 15.9778 28.5038 17.1157C29.667 18.2535 30.4252 19.7271 30.6664 21.3188Z" stroke="#DBD1C1" stroke-width="2" stroke-linecap="round" stroke-linejoin="round"/>
<path d="M33.5415 12.1875H33.5611" stroke="#DBD1C1" stroke-width="2" stroke-linecap="round" stroke-linejoin="round"/>
</svg>
