<svg width="44" height="45" viewBox="0 0 44 45" fill="none" xmlns="http://www.w3.org/2000/svg">
<path fill-rule="evenodd" clip-rule="evenodd" d="M31.0256 45C34.4667 45 37.7667 43.602 40.1999 41.1135C42.6331 38.6251 44 35.25 44 31.7308V13.2692C44 9.75001 42.6331 6.37493 40.1999 3.88647C37.7667 1.398 34.4667 0 31.0256 0H12.9744C9.53334 0 6.23327 1.398 3.8001 3.88647C1.36694 6.37493 0 9.75001 0 13.2692V31.7308C0 35.25 1.36694 38.6251 3.8001 41.1135C6.23327 43.602 9.53334 45 12.9744 45H31.0256ZM25.8607 8.10692C25.733 7.71794 25.4744 7.38801 25.1309 7.17598C24.7874 6.96395 24.3814 6.88362 23.9854 6.94933C23.5894 7.01503 23.2291 7.22248 22.9688 7.53469C22.7084 7.84689 22.565 8.24353 22.5641 8.65385V29.4231C22.5641 30.45 22.2663 31.4539 21.7085 32.3078C21.1506 33.1616 20.3577 33.8272 19.43 34.2201C18.5023 34.6131 17.4815 34.716 16.4967 34.5156C15.5119 34.3153 14.6073 33.8208 13.8973 33.0946C13.1872 32.3684 12.7037 31.4433 12.5078 30.436C12.3119 29.4288 12.4125 28.3848 12.7967 27.4361C13.181 26.4873 13.8317 25.6764 14.6666 25.1058C15.5015 24.5353 16.4831 24.2308 17.4872 24.2308C17.936 24.2308 18.3665 24.0484 18.6838 23.7238C19.0012 23.3993 19.1795 22.959 19.1795 22.5C19.1795 22.041 19.0012 21.6007 18.6838 21.2762C18.3665 20.9516 17.936 20.7692 17.4872 20.7692C15.8136 20.7692 14.1777 21.2768 12.7862 22.2277C11.3947 23.1786 10.3102 24.5301 9.66974 26.1114C9.0293 27.6927 8.86174 29.4327 9.18823 31.1114C9.51472 32.79 10.3206 34.332 11.504 35.5423C12.6873 36.7525 14.195 37.5767 15.8364 37.9106C17.4778 38.2446 19.1791 38.0732 20.7253 37.4182C22.2714 36.7632 23.5929 35.654 24.5227 34.2309C25.4525 32.8078 25.9487 31.1346 25.9487 29.4231V14.3262C27.6794 15.9692 30.1163 17.3077 33.282 17.3077C33.7309 17.3077 34.1613 17.1253 34.4787 16.8008C34.7961 16.4762 34.9744 16.036 34.9744 15.5769C34.9744 15.1179 34.7961 14.6777 34.4787 14.3531C34.1613 14.0285 33.7309 13.8462 33.282 13.8462C31.0888 13.8462 29.4213 12.9231 28.1848 11.7254C26.9212 10.4977 26.1586 9.01846 25.8607 8.10692Z" fill="white"/>
</svg>
